<svg xmlns="http://www.w3.org/2000/svg" xmlns:xlink="http://www.w3.org/1999/xlink" width="500" zoomAndPan="magnify" viewBox="0 0 375 374.999991" height="500" preserveAspectRatio="xMidYMid meet" version="1.0"><defs><g/><clipPath id="7414e0ded1"><path d="M 276.777344 175 L 294 175 L 294 200 L 276.777344 200 Z M 276.777344 175 " clip-rule="nonzero"/></clipPath><clipPath id="33b36c5b32"><path d="M 306 175 L 323.277344 175 L 323.277344 200 L 306 200 Z M 306 175 " clip-rule="nonzero"/></clipPath><clipPath id="520dd75478"><path d="M 292 169.445312 L 308 169.445312 L 308 205.445312 L 292 205.445312 Z M 292 169.445312 " clip-rule="nonzero"/></clipPath><clipPath id="707c509056"><path d="M 291 169.445312 L 308 169.445312 L 308 205.445312 L 291 205.445312 Z M 291 169.445312 " clip-rule="nonzero"/></clipPath></defs><path fill="#7ed957" d="M 291.445312 198.882812 C 291.191406 198.882812 290.9375 198.796875 290.734375 198.636719 L 277.726562 188.402344 C 277.449219 188.183594 277.289062 187.851562 277.289062 187.496094 C 277.289062 187.144531 277.449219 186.8125 277.726562 186.589844 L 290.734375 176.359375 C 290.9375 176.199219 291.191406 176.113281 291.445312 176.113281 C 291.800781 176.113281 292.132812 176.273438 292.351562 176.550781 C 292.542969 176.792969 292.628906 177.097656 292.589844 177.398438 C 292.554688 177.707031 292.402344 177.980469 292.160156 178.167969 L 280.304688 187.496094 L 292.160156 196.824219 C 292.402344 197.015625 292.554688 197.289062 292.589844 197.59375 C 292.628906 197.898438 292.542969 198.199219 292.351562 198.441406 C 292.132812 198.722656 291.800781 198.882812 291.445312 198.882812 " fill-opacity="1" fill-rule="nonzero"/><g clip-path="url(#7414e0ded1)"><path fill="#7ed957" d="M 291.445312 175.621094 C 291.082031 175.621094 290.722656 175.746094 290.433594 175.972656 L 277.425781 186.207031 C 277.027344 186.523438 276.796875 186.992188 276.796875 187.496094 C 276.796875 188.003906 277.027344 188.476562 277.425781 188.789062 L 290.433594 199.023438 C 290.71875 199.246094 291.082031 199.375 291.445312 199.375 C 291.957031 199.375 292.425781 199.144531 292.738281 198.746094 C 293.011719 198.402344 293.128906 197.972656 293.078125 197.535156 C 293.027344 197.101562 292.808594 196.710938 292.464844 196.441406 L 281.097656 187.496094 L 292.464844 178.554688 C 292.808594 178.28125 293.027344 177.894531 293.078125 177.457031 C 293.128906 177.023438 293.011719 176.59375 292.738281 176.25 C 292.425781 175.851562 291.953125 175.621094 291.445312 175.621094 Z M 291.445312 176.601562 C 291.644531 176.601562 291.835938 176.691406 291.96875 176.855469 C 292.195312 177.144531 292.144531 177.558594 291.855469 177.785156 L 279.511719 187.496094 L 291.855469 197.210938 C 292.144531 197.4375 292.195312 197.851562 291.96875 198.140625 C 291.835938 198.304688 291.644531 198.390625 291.445312 198.390625 C 291.304688 198.390625 291.160156 198.347656 291.039062 198.25 L 278.03125 188.019531 C 277.871094 187.890625 277.777344 187.699219 277.777344 187.496094 C 277.777344 187.292969 277.871094 187.101562 278.03125 186.976562 L 291.039062 176.746094 C 291.160156 176.648438 291.304688 176.601562 291.445312 176.601562 " fill-opacity="1" fill-rule="nonzero"/></g><path fill="#7ed957" d="M 308.609375 198.882812 C 308.253906 198.882812 307.925781 198.722656 307.703125 198.441406 C 307.308594 197.945312 307.394531 197.21875 307.898438 196.824219 L 319.753906 187.496094 L 307.898438 178.167969 C 307.394531 177.777344 307.308594 177.050781 307.703125 176.550781 C 307.925781 176.273438 308.253906 176.113281 308.609375 176.113281 C 308.867188 176.113281 309.117188 176.199219 309.320312 176.359375 L 322.328125 186.589844 C 322.609375 186.8125 322.765625 187.144531 322.765625 187.496094 C 322.765625 187.851562 322.609375 188.183594 322.328125 188.402344 L 309.320312 198.636719 C 309.117188 198.796875 308.867188 198.882812 308.609375 198.882812 " fill-opacity="1" fill-rule="nonzero"/><g clip-path="url(#33b36c5b32)"><path fill="#7ed957" d="M 308.609375 175.621094 C 308.101562 175.621094 307.632812 175.851562 307.316406 176.25 C 306.757812 176.960938 306.878906 177.996094 307.59375 178.554688 L 318.957031 187.496094 L 307.59375 196.441406 C 306.878906 197 306.757812 198.035156 307.316406 198.746094 C 307.632812 199.144531 308.101562 199.375 308.609375 199.375 C 308.976562 199.375 309.335938 199.246094 309.625 199.023438 L 322.632812 188.789062 C 323.03125 188.476562 323.257812 188.003906 323.257812 187.496094 C 323.257812 186.992188 323.03125 186.523438 322.632812 186.207031 L 309.625 175.972656 C 309.335938 175.746094 308.976562 175.621094 308.609375 175.621094 Z M 308.609375 176.601562 C 308.753906 176.601562 308.898438 176.648438 309.015625 176.746094 L 322.023438 186.976562 C 322.183594 187.101562 322.277344 187.292969 322.277344 187.496094 C 322.277344 187.699219 322.183594 187.890625 322.023438 188.019531 L 309.015625 198.25 C 308.898438 198.347656 308.753906 198.390625 308.609375 198.390625 C 308.414062 198.390625 308.21875 198.304688 308.089844 198.140625 C 307.863281 197.851562 307.914062 197.4375 308.199219 197.210938 L 320.546875 187.496094 L 308.199219 177.785156 C 307.914062 177.558594 307.863281 177.144531 308.089844 176.855469 C 308.21875 176.691406 308.414062 176.601562 308.609375 176.601562 " fill-opacity="1" fill-rule="nonzero"/></g><g clip-path="url(#520dd75478)"><path fill="#7ed957" d="M 293.5625 205.058594 C 293.421875 205.058594 293.28125 205.03125 293.148438 204.980469 C 292.863281 204.867188 292.632812 204.652344 292.511719 204.371094 C 292.386719 204.089844 292.378906 203.777344 292.488281 203.488281 L 305.191406 170.671875 C 305.363281 170.234375 305.796875 169.9375 306.265625 169.9375 C 306.410156 169.9375 306.550781 169.964844 306.683594 170.015625 C 307.273438 170.246094 307.570312 170.914062 307.339844 171.507812 L 294.640625 204.320312 C 294.46875 204.761719 294.035156 205.058594 293.5625 205.058594 " fill-opacity="1" fill-rule="nonzero"/></g><g clip-path="url(#707c509056)"><path fill="#7ed957" d="M 306.265625 169.445312 C 305.59375 169.445312 304.976562 169.871094 304.734375 170.496094 L 292.03125 203.3125 C 291.875 203.722656 291.882812 204.167969 292.0625 204.570312 C 292.238281 204.96875 292.5625 205.28125 292.972656 205.4375 C 293.160156 205.511719 293.359375 205.546875 293.5625 205.546875 C 294.238281 205.546875 294.851562 205.125 295.097656 204.5 L 307.796875 171.683594 C 308.125 170.839844 307.703125 169.882812 306.859375 169.558594 C 306.671875 169.484375 306.46875 169.445312 306.265625 169.445312 Z M 306.265625 170.429688 C 306.347656 170.429688 306.425781 170.445312 306.503906 170.472656 C 306.847656 170.605469 307.015625 170.988281 306.882812 171.328125 L 294.179688 204.144531 C 294.082031 204.40625 293.828125 204.566406 293.5625 204.566406 C 293.484375 204.566406 293.402344 204.554688 293.324219 204.523438 C 292.984375 204.390625 292.816406 204.007812 292.949219 203.667969 L 305.648438 170.851562 C 305.75 170.589844 306 170.429688 306.265625 170.429688 " fill-opacity="1" fill-rule="nonzero"/></g><g fill="#ffffff" fill-opacity="1"><g transform="translate(57.388826, 200.283311)"><g><path d="M 17.859375 -3.625 C 16.910156 -2.382812 15.867188 -1.46875 14.734375 -0.875 C 13.609375 -0.289062 12.296875 0 10.796875 0 C 8.191406 0 6.035156 -1.023438 4.328125 -3.078125 C 2.617188 -5.140625 1.765625 -7.765625 1.765625 -10.953125 C 1.765625 -14.148438 2.617188 -16.769531 4.328125 -18.8125 C 6.035156 -20.863281 8.191406 -21.890625 10.796875 -21.890625 C 12.296875 -21.890625 13.609375 -21.59375 14.734375 -21 C 15.867188 -20.414062 16.910156 -19.492188 17.859375 -18.234375 L 17.859375 -21.40625 L 24.734375 -21.40625 L 24.734375 -2.15625 C 24.734375 1.28125 23.644531 3.90625 21.46875 5.71875 C 19.300781 7.539062 16.15625 8.453125 12.03125 8.453125 C 10.6875 8.453125 9.390625 8.347656 8.140625 8.140625 C 6.890625 7.941406 5.632812 7.628906 4.375 7.203125 L 4.375 1.875 C 5.570312 2.5625 6.742188 3.070312 7.890625 3.40625 C 9.035156 3.75 10.191406 3.921875 11.359375 3.921875 C 13.597656 3.921875 15.238281 3.425781 16.28125 2.4375 C 17.332031 1.457031 17.859375 -0.0703125 17.859375 -2.15625 Z M 13.34375 -16.953125 C 11.925781 -16.953125 10.820312 -16.429688 10.03125 -15.390625 C 9.25 -14.347656 8.859375 -12.867188 8.859375 -10.953125 C 8.859375 -8.992188 9.238281 -7.503906 10 -6.484375 C 10.757812 -5.472656 11.875 -4.96875 13.34375 -4.96875 C 14.769531 -4.96875 15.878906 -5.488281 16.671875 -6.53125 C 17.460938 -7.582031 17.859375 -9.054688 17.859375 -10.953125 C 17.859375 -12.867188 17.460938 -14.347656 16.671875 -15.390625 C 15.878906 -16.429688 14.769531 -16.953125 13.34375 -16.953125 Z M 13.34375 -16.953125 "/></g></g></g><g fill="#ffffff" fill-opacity="1"><g transform="translate(85.412426, 200.283311)"><g><path d="M 12.890625 -9.640625 C 11.460938 -9.640625 10.382812 -9.394531 9.65625 -8.90625 C 8.9375 -8.425781 8.578125 -7.710938 8.578125 -6.765625 C 8.578125 -5.898438 8.867188 -5.222656 9.453125 -4.734375 C 10.035156 -4.242188 10.84375 -4 11.875 -4 C 13.15625 -4 14.234375 -4.457031 15.109375 -5.375 C 15.992188 -6.300781 16.4375 -7.460938 16.4375 -8.859375 L 16.4375 -9.640625 Z M 23.34375 -12.21875 L 23.34375 0 L 16.4375 0 L 16.4375 -3.171875 C 15.519531 -1.867188 14.488281 -0.921875 13.34375 -0.328125 C 12.195312 0.253906 10.800781 0.546875 9.15625 0.546875 C 6.9375 0.546875 5.132812 -0.0976562 3.75 -1.390625 C 2.375 -2.679688 1.6875 -4.359375 1.6875 -6.421875 C 1.6875 -8.929688 2.546875 -10.769531 4.265625 -11.9375 C 5.992188 -13.113281 8.707031 -13.703125 12.40625 -13.703125 L 16.4375 -13.703125 L 16.4375 -14.25 C 16.4375 -15.332031 16.007812 -16.125 15.15625 -16.625 C 14.300781 -17.125 12.972656 -17.375 11.171875 -17.375 C 9.703125 -17.375 8.335938 -17.226562 7.078125 -16.9375 C 5.816406 -16.644531 4.644531 -16.207031 3.5625 -15.625 L 3.5625 -20.84375 C 5.019531 -21.195312 6.488281 -21.46875 7.96875 -21.65625 C 9.445312 -21.84375 10.925781 -21.9375 12.40625 -21.9375 C 16.269531 -21.9375 19.054688 -21.171875 20.765625 -19.640625 C 22.484375 -18.117188 23.34375 -15.644531 23.34375 -12.21875 Z M 23.34375 -12.21875 "/></g></g></g><g fill="#ffffff" fill-opacity="1"><g transform="translate(111.830309, 200.283311)"><g><path d="M 14.6875 -4.421875 C 16.144531 -4.421875 17.257812 -4.953125 18.03125 -6.015625 C 18.8125 -7.085938 19.203125 -8.644531 19.203125 -10.6875 C 19.203125 -12.726562 18.8125 -14.28125 18.03125 -15.34375 C 17.257812 -16.414062 16.144531 -16.953125 14.6875 -16.953125 C 13.21875 -16.953125 12.09375 -16.414062 11.3125 -15.34375 C 10.53125 -14.269531 10.140625 -12.71875 10.140625 -10.6875 C 10.140625 -8.65625 10.53125 -7.101562 11.3125 -6.03125 C 12.09375 -4.957031 13.21875 -4.421875 14.6875 -4.421875 Z M 10.140625 -18.28125 C 11.078125 -19.53125 12.117188 -20.453125 13.265625 -21.046875 C 14.410156 -21.640625 15.726562 -21.9375 17.21875 -21.9375 C 19.863281 -21.9375 22.03125 -20.882812 23.71875 -18.78125 C 25.414062 -16.6875 26.265625 -13.988281 26.265625 -10.6875 C 26.265625 -7.382812 25.414062 -4.6875 23.71875 -2.59375 C 22.03125 -0.5 19.863281 0.546875 17.21875 0.546875 C 15.726562 0.546875 14.410156 0.253906 13.265625 -0.328125 C 12.117188 -0.921875 11.078125 -1.84375 10.140625 -3.09375 L 10.140625 0 L 3.28125 0 L 3.28125 -29.75 L 10.140625 -29.75 Z M 10.140625 -18.28125 "/></g></g></g><g fill="#ffffff" fill-opacity="1"><g transform="translate(139.853909, 200.283311)"><g><path d="M 24.65625 -10.765625 L 24.65625 -8.8125 L 8.65625 -8.8125 C 8.820312 -7.207031 9.398438 -6.003906 10.390625 -5.203125 C 11.390625 -4.398438 12.78125 -4 14.5625 -4 C 16.007812 -4 17.488281 -4.210938 19 -4.640625 C 20.507812 -5.066406 22.0625 -5.710938 23.65625 -6.578125 L 23.65625 -1.296875 C 22.03125 -0.679688 20.40625 -0.222656 18.78125 0.078125 C 17.164062 0.390625 15.550781 0.546875 13.9375 0.546875 C 10.0625 0.546875 7.050781 -0.4375 4.90625 -2.40625 C 2.757812 -4.375 1.6875 -7.132812 1.6875 -10.6875 C 1.6875 -14.175781 2.738281 -16.921875 4.84375 -18.921875 C 6.957031 -20.929688 9.863281 -21.9375 13.5625 -21.9375 C 16.925781 -21.9375 19.613281 -20.921875 21.625 -18.890625 C 23.644531 -16.859375 24.65625 -14.148438 24.65625 -10.765625 Z M 17.625 -13.046875 C 17.625 -14.335938 17.242188 -15.378906 16.484375 -16.171875 C 15.734375 -16.972656 14.742188 -17.375 13.515625 -17.375 C 12.191406 -17.375 11.113281 -17 10.28125 -16.25 C 9.457031 -15.507812 8.941406 -14.441406 8.734375 -13.046875 Z M 17.625 -13.046875 "/></g></g></g><g fill="#ffffff" fill-opacity="1"><g transform="translate(166.405602, 200.283311)"><g><path d="M 20.59375 -20.75 L 20.59375 -15.15625 C 19.664062 -15.800781 18.734375 -16.273438 17.796875 -16.578125 C 16.859375 -16.878906 15.882812 -17.03125 14.875 -17.03125 C 12.957031 -17.03125 11.46875 -16.472656 10.40625 -15.359375 C 9.34375 -14.242188 8.8125 -12.6875 8.8125 -10.6875 C 8.8125 -8.6875 9.34375 -7.128906 10.40625 -6.015625 C 11.46875 -4.898438 12.957031 -4.34375 14.875 -4.34375 C 15.945312 -4.34375 16.960938 -4.5 17.921875 -4.8125 C 18.890625 -5.132812 19.78125 -5.609375 20.59375 -6.234375 L 20.59375 -0.625 C 19.519531 -0.226562 18.429688 0.0625 17.328125 0.25 C 16.222656 0.445312 15.117188 0.546875 14.015625 0.546875 C 10.148438 0.546875 7.128906 -0.441406 4.953125 -2.421875 C 2.773438 -4.398438 1.6875 -7.15625 1.6875 -10.6875 C 1.6875 -14.21875 2.773438 -16.972656 4.953125 -18.953125 C 7.128906 -20.941406 10.148438 -21.9375 14.015625 -21.9375 C 15.140625 -21.9375 16.242188 -21.835938 17.328125 -21.640625 C 18.421875 -21.441406 19.507812 -21.144531 20.59375 -20.75 Z M 20.59375 -20.75 "/></g></g></g><g fill="#ffffff" fill-opacity="1"><g transform="translate(189.612049, 200.283311)"><g><path d="M 13.484375 -17.03125 C 11.960938 -17.03125 10.800781 -16.484375 10 -15.390625 C 9.207031 -14.304688 8.8125 -12.738281 8.8125 -10.6875 C 8.8125 -8.632812 9.207031 -7.0625 10 -5.96875 C 10.800781 -4.882812 11.960938 -4.34375 13.484375 -4.34375 C 14.972656 -4.34375 16.113281 -4.882812 16.90625 -5.96875 C 17.695312 -7.0625 18.09375 -8.632812 18.09375 -10.6875 C 18.09375 -12.738281 17.695312 -14.304688 16.90625 -15.390625 C 16.113281 -16.484375 14.972656 -17.03125 13.484375 -17.03125 Z M 13.484375 -21.9375 C 17.160156 -21.9375 20.035156 -20.941406 22.109375 -18.953125 C 24.179688 -16.960938 25.21875 -14.207031 25.21875 -10.6875 C 25.21875 -7.164062 24.179688 -4.410156 22.109375 -2.421875 C 20.035156 -0.441406 17.160156 0.546875 13.484375 0.546875 C 9.785156 0.546875 6.894531 -0.441406 4.8125 -2.421875 C 2.726562 -4.410156 1.6875 -7.164062 1.6875 -10.6875 C 1.6875 -14.207031 2.726562 -16.960938 4.8125 -18.953125 C 6.894531 -20.941406 9.785156 -21.9375 13.484375 -21.9375 Z M 13.484375 -21.9375 "/></g></g></g><g fill="#ffffff" fill-opacity="1"><g transform="translate(216.507824, 200.283311)"><g><path d="M 17.859375 -18.28125 L 17.859375 -29.75 L 24.734375 -29.75 L 24.734375 0 L 17.859375 0 L 17.859375 -3.09375 C 16.910156 -1.832031 15.867188 -0.910156 14.734375 -0.328125 C 13.609375 0.253906 12.296875 0.546875 10.796875 0.546875 C 8.160156 0.546875 5.992188 -0.5 4.296875 -2.59375 C 2.609375 -4.6875 1.765625 -7.382812 1.765625 -10.6875 C 1.765625 -13.988281 2.609375 -16.6875 4.296875 -18.78125 C 5.992188 -20.882812 8.160156 -21.9375 10.796875 -21.9375 C 12.273438 -21.9375 13.582031 -21.640625 14.71875 -21.046875 C 15.863281 -20.453125 16.910156 -19.53125 17.859375 -18.28125 Z M 13.34375 -4.421875 C 14.8125 -4.421875 15.929688 -4.953125 16.703125 -6.015625 C 17.472656 -7.085938 17.859375 -8.644531 17.859375 -10.6875 C 17.859375 -12.726562 17.472656 -14.28125 16.703125 -15.34375 C 15.929688 -16.414062 14.8125 -16.953125 13.34375 -16.953125 C 11.894531 -16.953125 10.785156 -16.414062 10.015625 -15.34375 C 9.242188 -14.28125 8.859375 -12.726562 8.859375 -10.6875 C 8.859375 -8.644531 9.242188 -7.085938 10.015625 -6.015625 C 10.785156 -4.953125 11.894531 -4.421875 13.34375 -4.421875 Z M 13.34375 -4.421875 "/></g></g></g><g fill="#ffffff" fill-opacity="1"><g transform="translate(244.531424, 200.283311)"><g><path d="M 24.65625 -10.765625 L 24.65625 -8.8125 L 8.65625 -8.8125 C 8.820312 -7.207031 9.398438 -6.003906 10.390625 -5.203125 C 11.390625 -4.398438 12.78125 -4 14.5625 -4 C 16.007812 -4 17.488281 -4.210938 19 -4.640625 C 20.507812 -5.066406 22.0625 -5.710938 23.65625 -6.578125 L 23.65625 -1.296875 C 22.03125 -0.679688 20.40625 -0.222656 18.78125 0.078125 C 17.164062 0.390625 15.550781 0.546875 13.9375 0.546875 C 10.0625 0.546875 7.050781 -0.4375 4.90625 -2.40625 C 2.757812 -4.375 1.6875 -7.132812 1.6875 -10.6875 C 1.6875 -14.175781 2.738281 -16.921875 4.84375 -18.921875 C 6.957031 -20.929688 9.863281 -21.9375 13.5625 -21.9375 C 16.925781 -21.9375 19.613281 -20.921875 21.625 -18.890625 C 23.644531 -16.859375 24.65625 -14.148438 24.65625 -10.765625 Z M 17.625 -13.046875 C 17.625 -14.335938 17.242188 -15.378906 16.484375 -16.171875 C 15.734375 -16.972656 14.742188 -17.375 13.515625 -17.375 C 12.191406 -17.375 11.113281 -17 10.28125 -16.25 C 9.457031 -15.507812 8.941406 -14.441406 8.734375 -13.046875 Z M 17.625 -13.046875 "/></g></g></g></svg>